<svg width="18" height="11" viewBox="0 0 18 11" fill="none" xmlns="http://www.w3.org/2000/svg">
<path d="M17.2959 8.20414L9.7959 0.704143C9.69138 0.599262 9.56719 0.516047 9.43044 0.459266C9.2937 0.402485 9.14709 0.373255 8.99902 0.373255C8.85096 0.373255 8.70435 0.402485 8.5676 0.459266C8.43085 0.516047 8.30666 0.599262 8.20215 0.704143L0.702147 8.20414C0.490802 8.41549 0.37207 8.70213 0.37207 9.00102C0.37207 9.2999 0.490802 9.58655 0.702147 9.79789C0.913491 10.0092 1.20014 10.128 1.49902 10.128C1.79791 10.128 2.08455 10.0092 2.2959 9.79789L8.99996 3.09383L15.704 9.79883C15.9154 10.0102 16.202 10.1289 16.5009 10.1289C16.7998 10.1289 17.0864 10.0102 17.2978 9.79883C17.5091 9.58748 17.6278 9.30084 17.6278 9.00195C17.6278 8.70307 17.5091 8.41642 17.2978 8.20508L17.2959 8.20414Z" fill="#1A1A1A"/>
</svg>
