<svg width="22" height="18" viewBox="0 0 22 18" fill="none" xmlns="http://www.w3.org/2000/svg">
<path d="M12.5 6C12.5 5.70333 12.588 5.41332 12.7528 5.16665C12.9176 4.91997 13.1519 4.72771 13.426 4.61418C13.7001 4.50065 14.0017 4.47094 14.2926 4.52882C14.5836 4.5867 14.8509 4.72956 15.0607 4.93934C15.2704 5.14912 15.4133 5.41639 15.4712 5.70736C15.5291 5.99834 15.4994 6.29994 15.3858 6.57403C15.2723 6.84811 15.08 7.08238 14.8334 7.2472C14.5867 7.41203 14.2967 7.5 14 7.5C13.6022 7.5 13.2206 7.34196 12.9393 7.06066C12.658 6.77936 12.5 6.39782 12.5 6ZM21.125 2.25V15.75C21.125 16.2473 20.9275 16.7242 20.5758 17.0758C20.2242 17.4275 19.7473 17.625 19.25 17.625H2.75C2.25272 17.625 1.77581 17.4275 1.42417 17.0758C1.07254 16.7242 0.875 16.2473 0.875 15.75V2.25C0.875 1.75272 1.07254 1.27581 1.42417 0.924175C1.77581 0.572544 2.25272 0.375 2.75 0.375H19.25C19.7473 0.375 20.2242 0.572544 20.5758 0.924175C20.9275 1.27581 21.125 1.75272 21.125 2.25ZM3.125 2.625V10.0988L6.29938 6.92438C6.65099 6.57287 7.12782 6.3754 7.625 6.3754C8.12218 6.3754 8.59901 6.57287 8.95062 6.92438L12.8103 10.7812L14.4209 9.17156C14.7726 8.82005 15.2494 8.62259 15.7466 8.62259C16.2437 8.62259 16.7206 8.82005 17.0722 9.17156L18.875 10.9772V2.625H3.125ZM3.125 15.375H14.2194L7.625 8.78063L3.125 13.2806V15.375ZM18.875 15.375V14.1562L15.7466 11.0278L14.4012 12.375L17.4012 15.375H18.875Z" fill="#B3B3B3"/>
</svg>
